<?xml version="1.0" standalone="no"?>
<svg viewBox="0 0 200 200" xmlns="http://www.w3.org/2000/svg">
  <path fill="#F1C21B" d="M35.1,-59.3C44.8,-55.2,51.3,-44.3,57.3,-33.3C63.3,-22.3,68.7,-11.1,67.7,-0.6C66.7,10,59.4,20,52,28.6C44.6,37.3,37.3,44.5,28.6,53.8C19.9,63.2,10,74.6,-2.6,79.2C-15.2,83.7,-30.5,81.5,-42.1,73.9C-53.8,66.2,-61.9,53.3,-66.2,40.1C-70.5,26.9,-71,13.5,-70.8,0.1C-70.6,-13.2,-69.6,-26.4,-61.9,-33.7C-54.2,-41.1,-39.8,-42.6,-28.4,-45.7C-17,-48.7,-8.5,-53.3,2.1,-56.9C12.7,-60.6,25.5,-63.4,35.1,-59.3Z" transform="translate(100 100)" />
</svg>
